<?xml version="1.0" encoding="UTF-8"?>
<svg width="32" height="32" viewBox="0 0 32 32" fill="none" xmlns="http://www.w3.org/2000/svg">
  <!-- Background Circle -->
  <circle cx="16" cy="16" r="16" fill="#0284C7"/>
  
  <!-- Truck Icon -->
  <path d="M8 8H14L17 14V22H14M8 22H6M6 22H4V8H8M6 22C6 24.2091 4.20914 26 2 26C-0.209139 26 -2 24.2091 -2 22C-2 19.7909 -0.209139 18 2 18C4.20914 18 6 19.7909 6 22ZM14 22C14 24.2091 12.2091 26 10 26C7.79086 26 6 24.2091 6 22C6 19.7909 7.79086 18 10 18C12.2091 18 14 19.7909 14 22Z" stroke="white" stroke-width="2"/>
  
  <!-- Document Icon -->
  <path d="M20 8H26V22H18V8H20M20 8V12H26M20 8V12H18" stroke="white" stroke-width="2"/>
</svg> 